<svg version="1.1" id="Layer_1" xmlns="http://www.w3.org/2000/svg" xmlns:xlink="http://www.w3.org/1999/xlink" x="0px" y="0px"
	 viewBox="0 0 11 11" style="enable-background:new 0 0 11 11;" xml:space="preserve">
  <path id="plus_add" style="fill:#E60D37" d="M8.261,0.741c0.845,0.487,1.513,1.153,2.003,1.998S11,4.505,11,5.5s-0.245,1.916-0.736,2.761
  	s-1.158,1.513-2.003,2.003S6.495,11,5.5,11s-1.916-0.245-2.761-0.736S1.226,9.106,0.736,8.261S0,6.495,0,5.5
  	s0.245-1.916,0.736-2.761s1.158-1.513,2.003-2.003S4.505,0,5.5,0S7.416,0.247,8.261,0.741z"/>
  <path id="Path" style="fill:#F7F7F7" d="M8.25,5.5c0-0.1-0.038-0.19-0.113-0.269S7.971,5.113,7.863,5.113H5.887V3.147
  	c0-0.107-0.038-0.199-0.113-0.274S5.607,2.761,5.5,2.761c-0.1,0-0.19,0.038-0.269,0.113S5.113,3.04,5.113,3.147v1.966H3.137
  	c-0.107,0-0.199,0.039-0.274,0.118S2.75,5.4,2.75,5.5c0,0.107,0.038,0.199,0.113,0.274s0.167,0.113,0.274,0.113h1.977v1.966
  	c0,0.107,0.039,0.199,0.118,0.274S5.4,8.239,5.5,8.239c0.107,0,0.199-0.038,0.274-0.113S5.887,7.96,5.887,7.853V5.887h1.977
  	c0.107,0,0.199-0.038,0.274-0.113S8.25,5.607,8.25,5.5z"/>
</svg>
