<?xml version="1.0" encoding="utf-8"?>
<!-- Generator: Adobe Illustrator 19.0.0, SVG Export Plug-In . SVG Version: 6.00 Build 0)  -->
<svg version="1.1" id="レイヤー_1" xmlns="http://www.w3.org/2000/svg" xmlns:xlink="http://www.w3.org/1999/xlink" x="0px"
	 y="0px" viewBox="72 101.7 74 81.9" style="enable-background:new 72 101.7 74 81.9;" xml:space="preserve">
<style type="text/css">
	.st0{fill:#50B848;}
	.st1{fill:#ED1A3B;}
	.st2{fill:#0DB14B;}
</style>
<g>
	<path class="st0" d="M143.7,107.9"/>
	<g>
		<path d="M146,107.4c-0.1-0.6-0.9-1.3-0.9-1.3c-5.1-3.8-10.9-5.3-16.1-4c-9.3,2.2-13.2,11.8-13.3,11.9c-1.6-0.1-3.2,0-5,0.3
			c-6.1,1.1-11.6,5.1-15.7,11.2c-3.8,5.8-5.9,12.7-5.9,19.8c-9.6,1.1-17,9.2-17,19.1c0,10.6,8.6,19.2,19.2,19.2
			c7.4,0,13.7-4.2,17-10.3c3.2,6.1,9.6,10.3,17,10.3c10.6,0,19.2-8.6,19.2-19.2c0-10.6-8.6-19.2-19.2-19.2c-1.8,0-3.6,0.3-5.2,0.7
			c-0.8-2.1-1.5-4.3-2-6.6c-1.6-7.2-1.4-14.4,0.7-20.5c0.8,0.1,1.6,0.3,2.5,0.4c3.6,0.7,7.4,1.3,11.9,0.3c5.3-1.2,9.8-5,12.8-10.6
			C146,108.4,146.1,107.9,146,107.4z M98.7,128c3.4-5.1,7.9-8.4,12.8-9.3c0.8-0.2,1.7-0.2,2.5-0.3c-2,6.6-2.2,14.3-0.5,21.9
			c0.6,2.5,1.3,5,2.3,7.3c-3.2,1.8-5.8,4.5-7.6,7.8c-2.9-5.4-8.3-9.3-14.6-10.1C93.6,139.1,95.4,133,98.7,128z"/>
		<path class="st1" d="M91.2,179c-8.1,0-14.7-6.6-14.7-14.7c0-7.4,5.5-13.6,12.7-14.5c0.1,1.3,0.3,2.6,0.6,3.9
			c0.2,1.1,1.2,1.8,2.2,1.8c0.2,0,0.3,0,0.5-0.1c1.2-0.3,2-1.5,1.7-2.7c-0.2-0.9-0.3-1.9-0.5-2.8c6.8,1.2,12,7.2,12,14.4
			C105.9,172.5,99.3,179,91.2,179z"/>
		<path class="st1" d="M117.6,151.8c0.6,1.1,1.2,2.1,1.8,3.1c0.4,0.7,1.2,1,1.9,1c0.4,0,0.8-0.1,1.2-0.4c1.1-0.7,1.4-2.1,0.7-3.1
			c-0.5-0.8-1-1.6-1.4-2.4c1.1-0.2,2.2-0.4,3.3-0.4c8.1,0,14.7,6.6,14.7,14.7c0,8.1-6.6,14.7-14.7,14.7s-14.7-6.6-14.7-14.7
			C110.5,159,113.3,154.4,117.6,151.8z"/>
		<path class="st2" d="M131.9,115.2c-3.6,0.8-11-0.5-11.5-0.6c1.6-3.4,5.7-7.2,9.5-8c3.5-0.8,7.2-0.1,10.7,2.1
			C138.4,112.1,135.4,114.4,131.9,115.2z"/>
	</g>
</g>
</svg>
