<svg version="1.1" id="Layer_1" xmlns="http://www.w3.org/2000/svg" xmlns:xlink="http://www.w3.org/1999/xlink" x="0px" y="0px"
	 viewBox="0 0 21 21" style="enable-background:new 0 0 21 21;" xml:space="preserve">
  <circle id="Oval" style="fill:#FFFFFF;stroke:#BDBDBD;stroke-width:0.52;" cx="10.5" cy="10.5" r="10.1"/>
  <g id="edit_modify" transform="translate(6.240000, 6.240000)">
  	<path id="edit_icon" class="st1" d="M4.9,1.6l2.4,2.4L2.6,8.8C2.5,8.9,2.5,8.9,2.4,8.9h-2c-0.2,0-0.3-0.1-0.3-0.3v-2
  		c0-0.1,0-0.2,0.1-0.2L4.9,1.6z M8.9,2.2c0,0.2-0.1,0.4-0.2,0.5l-1,1L5.3,1.3l1-1c0.1-0.1,0.3-0.2,0.5-0.2c0.2,0,0.4,0.1,0.5,0.2
  		l1.4,1.4C8.8,1.8,8.9,2,8.9,2.2z"/>
  	<polygon id="Path" style="fill:#212121;" points="2.2,8.1 2.7,7.6 1.4,6.3 0.8,6.8 0.8,7.4 1.6,8.1"/>
  </g>
</svg>
