<?xml version="1.0" encoding="UTF-8"?>
<svg width="34px" height="34px" viewBox="0 0 34 34" version="1.1" xmlns="http://www.w3.org/2000/svg" xmlns:xlink="http://www.w3.org/1999/xlink">
    <!-- Generator: Sketch 56.3 (81716) - https://sketch.com -->
    <title>FB</title>
    <desc>Created with Sketch.</desc>
    <defs>
      <linearGradient id="fb-gradient" x1="0%" y1="0%" x2="0%" y2="100%">
      <stop offset="0%" style="stop-color:#32b6fb;" />
      <stop offset="100%" style="stop-color:#1374e7;" />
      </linearGradient>
    </defs>
    <g id="Page-1" stroke="none" stroke-width="1" fill="none" fill-rule="evenodd">
        <g id="Teamcreate_login" transform="translate(-646.000000, -478.000000)">
            <g id="SNS_BTN" transform="translate(555.000000, 478.000000)">
                <g id="FB" transform="translate(91.799991, 0.000000)">
                    <path d="M33.1499966,16.5749983 C33.1499966,7.42087278 25.7291238,0 16.5749983,0 C7.42087278,0 0,7.42087278 0,16.5749983 C0,24.8480591 6.06123732,31.7051877 13.9851548,32.9485392 L13.9851548,21.3662088 L9.77665916,21.3662088 L9.77665916,16.5749983 L13.9851548,16.5749983 L13.9851548,12.923319 C13.9851548,8.76921005 16.4596855,6.47460872 20.2457777,6.47460872 C22.0592185,6.47460872 23.9560523,6.79833915 23.9560523,6.79833915 L23.9560523,10.8773426 L21.8659838,10.8773426 C19.8069611,10.8773426 19.1648418,12.1550096 19.1648418,13.4657941 L19.1648418,16.5749983 L23.761814,16.5749983 L23.0269459,21.3662088 L19.1648418,21.3662088 L19.1648418,32.9485392 C27.0887593,31.7051877 33.1499966,24.8480591 33.1499966,16.5749983" id="Fill-1" fill="url(#fb-gradient)"></path>
                    <path d="M23.0269394,21.3662088 L23.7618075,16.5749983 L19.1648353,16.5749983 L19.1648353,13.4657941 C19.1648353,12.1550096 19.8069546,10.8773426 21.8659773,10.8773426 L23.9560458,10.8773426 L23.9560458,6.79833915 C23.9560458,6.79833915 22.059212,6.47460872 20.2457713,6.47460872 C16.4597114,6.47460872 13.9851484,8.76921005 13.9851484,12.923319 L13.9851484,16.5749983 L9.77665269,16.5749983 L9.77665269,21.3662088 L13.9851484,21.3662088 L13.9851484,32.9485392 C14.8290489,33.0809773 15.6939271,33.1499966 16.5749918,33.1499966 C17.4560566,33.1499966 18.3209672,33.0809773 19.1648353,32.9485392 L19.1648353,21.3662088 L23.0269394,21.3662088 Z" id="Fill-3" fill="#FFFFFF"></path>
                </g>
            </g>
        </g>
    </g>
</svg>