<?xml version="1.0" encoding="utf-8"?>
<svg version="1.1" id="Layer_1" xmlns="http://www.w3.org/2000/svg" xmlns:xlink="http://www.w3.org/1999/xlink" x="0px" y="0px"
	 viewBox="0 0 34 34" style="enable-background:new 0 0 34 34;" xml:space="preserve">
<style type="text/css">
	.st0{fill-rule:evenodd;clip-rule:evenodd;fill:#221E1B;}
</style>
<path class="st0" d="M16.928,0.424c-9.187,0-16.636,7.449-16.636,16.638c0,7.35,4.767,13.586,11.379,15.786
	c0.832,0.153,1.136-0.361,1.136-0.802c0-0.395-0.014-1.441-0.022-2.83c-4.628,1.005-5.604-2.23-5.604-2.23
	c-0.757-1.922-1.847-2.434-1.847-2.434c-1.511-1.032,0.114-1.011,0.114-1.011c1.67,0.118,2.548,1.715,2.548,1.715
	c1.484,2.542,3.894,1.808,4.842,1.382c0.151-1.075,0.581-1.808,1.056-2.224c-3.694-0.42-7.578-1.847-7.578-8.223
	c0-1.816,0.648-3.301,1.713-4.464c-0.171-0.421-0.742-2.112,0.163-4.403c0,0,1.397-0.447,4.575,1.706
	c1.327-0.369,2.75-0.554,4.165-0.56c1.413,0.006,2.836,0.191,4.165,0.56c3.176-2.153,4.571-1.706,4.571-1.706
	c0.908,2.291,0.337,3.982,0.166,4.403c1.066,1.163,1.71,2.648,1.71,4.464c0,6.391-3.89,7.798-7.596,8.21
	c0.597,0.514,1.13,1.529,1.13,3.081c0,2.224-0.02,4.019-0.02,4.564c0,0.445,0.3,0.963,1.144,0.8
	c6.605-2.204,11.368-8.436,11.368-15.784C33.566,7.873,26.116,0.424,16.928,0.424z"/>
</svg>
