<?xml version="1.0" encoding="UTF-8"?>
<svg width="35px" height="34px" viewBox="0 0 35 34" version="1.1" xmlns="http://www.w3.org/2000/svg" xmlns:xlink="http://www.w3.org/1999/xlink">
    <!-- Generator: Sketch 56.3 (81716) - https://sketch.com -->
    <title>インスタ</title>
    <desc>Created with Sketch.</desc>
    <defs>
        <polygon id="path-1" points="0 0.00526297198 16.5697693 0.00526297198 16.5697693 16.6826249 0 16.6826249"></polygon>
    </defs>
    <g id="Page-1" stroke="none" stroke-width="1" fill="none" fill-rule="evenodd">
        <g id="Teamcreate_login" transform="translate(-600.000000, -478.000000)">
            <g id="SNS_BTN" transform="translate(555.000000, 478.000000)">
                <g id="インスタ" transform="translate(45.899995, 0.000000)">
                    <circle id="Oval" fill="#E63366" cx="16.5749983" cy="16.5749983" r="16.5749983"></circle>
                    <g id="Group-8" transform="translate(8.524285, 8.524285)">
                        <g id="Group-3">
                            <mask id="mask-2" fill="white">
                                <use xlink:href="#path-1"></use>
                            </mask>
                            <g id="Clip-2"></g>
                            <path d="M8.28488794,0.00525966194 C6.03483192,0.00525966194 5.75272808,0.0148587932 4.86905703,0.0554399483 C3.98719477,0.095921802 3.38496983,0.23689663 2.85795724,0.44304625 C2.31315283,0.656146964 1.85112475,0.941241164 1.39051081,1.404813 C0.929929757,1.86841794 0.646674875,2.33344621 0.434949003,2.88178831 C0.230129381,3.41218996 0.0900640682,4.01835855 0.0498433878,4.90591409 C0.00952404665,5.79532325 -1.31547606e-05,6.07929204 -1.31547606e-05,8.34395881 C-1.31547606e-05,10.6085925 0.00952404665,10.8925613 0.0498433878,11.7819704 C0.0900640682,12.6695591 0.230129381,13.2756946 0.434949003,13.8060962 C0.646674875,14.3544383 0.929929757,14.8194997 1.39051081,15.2830715 C1.85112475,15.7466103 2.31315283,16.0317707 2.85795724,16.2448383 C3.38496983,16.451021 3.98719477,16.5919627 4.86905703,16.6324446 C5.75272808,16.6730588 6.03483192,16.6826249 8.28488794,16.6826249 C10.534944,16.6826249 10.8170478,16.6730588 11.7007188,16.6324446 C12.5825811,16.5919627 13.184806,16.451021 13.7118186,16.2448383 C14.256623,16.0317707 14.7186511,15.7466103 15.1792322,15.2830715 C15.6398461,14.8194997 15.923101,14.3544383 16.1348269,13.8060962 C16.3396465,13.2756946 16.4797118,12.6695591 16.5198996,11.7819704 C16.5602518,10.8925613 16.569789,10.6085925 16.569789,8.34395881 C16.569789,6.07929204 16.5602518,5.79532325 16.5198996,4.90591409 C16.4797118,4.01835855 16.3396465,3.41218996 16.1348269,2.88178831 C15.923101,2.33344621 15.6398461,1.86841794 15.1792322,1.404813 C14.7186511,0.941241164 14.256623,0.656146964 13.7118186,0.44304625 C13.184806,0.23689663 12.5825811,0.095921802 11.7007188,0.0554399483 C10.8170478,0.0148587932 10.534944,0.00525966194 8.28488794,0.00525966194 M8.28488794,1.50772231 C10.4970582,1.50772231 10.7590682,1.51622913 11.6326758,1.55634688 C12.4404439,1.59341938 12.8791223,1.72926364 13.1710593,1.8434602 C13.5577764,1.99472927 13.8337962,2.17542464 14.1236942,2.46720513 C14.4135922,2.75901873 14.5931218,3.03679773 14.7434478,3.42602595 C14.8568748,3.71985867 14.9918426,4.16141871 15.0287088,4.97439893 C15.0685349,5.85367935 15.0769868,6.11742376 15.0769868,8.34395881 C15.0769868,10.5704939 15.0685349,10.8341721 15.0287088,11.7134856 C14.9918426,12.5264658 14.8568748,12.9680259 14.7434478,13.2618586 C14.5931218,13.6510868 14.4135922,13.9288658 14.1236942,14.2206463 C13.8337962,14.5124268 13.5577764,14.6931553 13.1710593,14.8444574 C12.8791223,14.9586209 12.4404439,15.094432 11.6326758,15.1315376 C10.7591997,15.1716554 10.4972227,15.1801622 8.28488794,15.1801622 C6.07255319,15.1801622 5.81057614,15.1716554 4.93710003,15.1315376 C4.12933196,15.094432 3.69065358,14.9586209 3.39871656,14.8444574 C3.01199949,14.6931553 2.73597972,14.5124268 2.44608169,14.2206794 C2.15618365,13.9288658 1.97665405,13.6510868 1.82632803,13.2618586 C1.71286822,12.9680259 1.57793326,12.5264658 1.54106705,11.7134856 C1.50124101,10.8341721 1.49278907,10.5704939 1.49278907,8.34395881 C1.49278907,6.11742376 1.50124101,5.85367935 1.54106705,4.97439893 C1.57793326,4.16141871 1.71286822,3.71985867 1.82632803,3.42602595 C1.97665405,3.03679773 2.15618365,2.75901873 2.44608169,2.46723824 C2.73597972,2.17542464 3.01199949,1.99472927 3.39871656,1.8434602 C3.69065358,1.72926364 4.12933196,1.59341938 4.93706715,1.55634688 C5.81070768,1.51622913 6.07271763,1.50772231 8.28488794,1.50772231" id="Fill-1" fill="#FFFFFF" mask="url(#mask-2)"></path>
                        </g>
                        <path d="M8.0991469,11.2879193 C6.5460882,11.2879193 5.28705143,10.0288874 5.28705143,8.47583467 C5.28705143,6.92274847 6.5460882,5.66378355 8.0991469,5.66378355 C9.65220561,5.66378355 10.9112424,6.92274847 10.9112424,8.47583467 C10.9112424,10.0288874 9.65220561,11.2879193 8.0991469,11.2879193 M8.0991469,4.14374958 C5.70658524,4.14374958 3.76704507,6.08328225 3.76704507,8.47583467 C3.76704507,10.8683871 5.70658524,12.8079532 8.0991469,12.8079532 C10.4917086,12.8079532 12.4312487,10.8683871 12.4312487,8.47583467 C12.4312487,6.08328225 10.4917086,4.14374958 8.0991469,4.14374958" id="Fill-4" fill="#FFFFFF"></path>
                        <path d="M13.5613623,3.95539733 C13.5613623,4.47553117 13.1397418,4.89715859 12.6196166,4.89715859 C12.0994913,4.89715859 11.6778397,4.47553117 11.6778397,3.95539733 C11.6778397,3.43526348 12.0994913,3.01363606 12.6196166,3.01363606 C13.1397418,3.01363606 13.5613623,3.43526348 13.5613623,3.95539733" id="Fill-6" fill="#FFFFFF"></path>
                    </g>
                </g>
            </g>
        </g>
    </g>
</svg>