<?xml version="1.0" encoding="UTF-8"?>
<svg width="34px" height="34px" viewBox="0 0 34 34" version="1.1" xmlns="http://www.w3.org/2000/svg" xmlns:xlink="http://www.w3.org/1999/xlink">
    <!-- Generator: Sketch 56.3 (81716) - https://sketch.com -->
    <title>LINE</title>
    <desc>Created with Sketch.</desc>
    <g id="Page-1" stroke="none" stroke-width="1" fill="none" fill-rule="evenodd">
        <g id="Teamcreate_login" transform="translate(-692.000000, -478.000000)">
            <g id="SNS_BTN" transform="translate(555.000000, 478.000000)">
                <g id="LINE" transform="translate(137.699986, 0.000000)">
                    <path d="M16.5749983,33.1499966 L16.5749983,33.1499966 C7.420903,33.1499966 0,25.7290936 0,16.5749983 C0,7.420903 7.420903,0 16.5749983,0 C25.7290936,0 33.1499966,7.420903 33.1499966,16.5749983 C33.1499966,25.7290936 25.7290936,33.1499966 16.5749983,33.1499966" id="Fill-1" fill="#00B900"></path>
                    <path d="M28.5906842,15.1172548 C28.5906842,9.71656789 23.176461,5.32253583 16.5210467,5.32253583 C9.86646112,5.32253583 4.45168542,9.71656789 4.45168542,15.1172548 C4.45168542,19.9590881 8.74543874,24.0141614 14.5455831,24.7807551 C14.9386869,24.8655638 15.4737831,25.0396013 15.6088693,25.3757975 C15.7306955,25.6810538 15.6884293,26.1589662 15.6478205,26.4669849 C15.6478205,26.4669849 15.5063805,27.3186636 15.4757168,27.5004361 C15.4229531,27.805416 15.2331693,28.693836 16.5210467,28.1510048 C17.8094766,27.6081736 23.4720485,24.0583614 26.004432,21.143648 L26.0038795,21.143648 C27.7528181,19.2253682 28.5906842,17.2789109 28.5906842,15.1172548" id="Fill-3" fill="#FFFFFF"></path>
                    <path d="M14.0688033,12.5074661 L13.2220972,12.5074661 C13.0925359,12.5074661 12.9870084,12.6127173 12.9870084,12.7422786 L12.9870084,18.0012493 C12.9870084,18.1308105 13.0925359,18.2357855 13.2220972,18.2357855 L14.0688033,18.2357855 C14.1986408,18.2357855 14.303892,18.1308105 14.303892,18.0012493 L14.303892,12.7422786 C14.303892,12.6127173 14.1986408,12.5074661 14.0688033,12.5074661" id="Fill-5" fill="#00B900"></path>
                    <path d="M19.8960755,12.5074661 L19.0496456,12.5074661 C18.9195318,12.5074661 18.8145568,12.6127173 18.8145568,12.7422786 L18.8145568,15.8666658 L16.4042758,12.6118886 C16.3987508,12.6036011 16.3923971,12.5955898 16.3860433,12.5881311 C16.3854908,12.5875786 16.3849383,12.5870261 16.3846621,12.5864736 C16.3799658,12.5815011 16.3749933,12.5765286 16.3702971,12.5721086 C16.3689158,12.5707273 16.3675346,12.5693461 16.3661533,12.5679648 C16.3620096,12.5646498 16.3578658,12.5607823 16.3534458,12.5577436 C16.3515121,12.5558098 16.3495783,12.5544286 16.3473683,12.5527711 C16.3435008,12.5500086 16.3393571,12.5472461 16.3352133,12.5444836 C16.3330033,12.5428261 16.3305171,12.5417211 16.3280308,12.5403398 C16.3238871,12.5378536 16.3197433,12.5353674 16.3155996,12.5331574 C16.3131133,12.5320524 16.3106271,12.5306711 16.3081408,12.5295661 C16.3037208,12.5276324 16.2993008,12.5254224 16.2946046,12.5240411 C16.2918421,12.5229361 16.2896321,12.5221074 16.2868696,12.5212786 C16.2824496,12.5193449 16.2777533,12.5179636 16.2730571,12.5165824 C16.2702946,12.5157536 16.2678083,12.5152011 16.2647696,12.5143724 C16.2603496,12.5132674 16.2559296,12.5124386 16.2512333,12.5116099 C16.2479183,12.5110574 16.2446033,12.5105049 16.2412883,12.5102286 C16.2374208,12.5093999 16.2332771,12.5091236 16.2291333,12.5085711 C16.2249896,12.5082949 16.2211221,12.5080186 16.2169784,12.5077424 C16.2139396,12.5077424 16.2114534,12.5074661 16.2086909,12.5074661 L15.3619847,12.5074661 C15.2324235,12.5074661 15.126896,12.6127173 15.126896,12.7422786 L15.126896,18.0012493 C15.126896,18.1308105 15.2324235,18.2357855 15.3619847,18.2357855 L16.2086909,18.2357855 C16.3385283,18.2357855 16.4437796,18.1308105 16.4437796,18.0012493 L16.4437796,14.8779671 L18.8568231,18.1366118 C18.8736743,18.160093 18.8941168,18.1794305 18.9164931,18.1946243 C18.9173218,18.1951768 18.9181506,18.1957293 18.9189793,18.196558 C18.9236756,18.1995968 18.9286481,18.2026355 18.9336206,18.205398 C18.9355543,18.206503 18.9377643,18.207608 18.9402506,18.2089893 C18.9438418,18.210923 18.9474331,18.2128568 18.9513006,18.2145143 C18.9551681,18.2161718 18.9587593,18.217553 18.9629031,18.2192105 C18.9653893,18.2200393 18.9675993,18.2211443 18.9698093,18.221973 C18.9753343,18.2239068 18.9805831,18.2255643 18.9858318,18.2272218 C18.9869368,18.2272218 18.9883181,18.2277743 18.9894231,18.2277743 C19.0082081,18.233023 19.0283743,18.2357855 19.0496456,18.2357855 L19.8960755,18.2357855 C20.025913,18.2357855 20.1311642,18.1308105 20.1311642,18.0012493 L20.1311642,12.7422786 C20.1311642,12.6127173 20.025913,12.5074661 19.8960755,12.5074661" id="Fill-7" fill="#00B900"></path>
                    <path d="M12.0280895,16.9189572 L9.72775601,16.9189572 L9.72775601,12.7423338 C9.72775601,12.6124963 9.62250477,12.5075214 9.49266728,12.5075214 L8.64596112,12.5075214 C8.51639988,12.5075214 8.41087239,12.6124963 8.41087239,12.7423338 L8.41087239,18.000752 L8.41087239,18.0013045 C8.41087239,18.0642895 8.43628739,18.1214733 8.47689614,18.1634633 C8.47772489,18.1645683 8.47855364,18.1659495 8.47993489,18.1673308 C8.48103989,18.1681595 8.48242114,18.1689883 8.48324989,18.1703695 C8.52579238,18.2109783 8.58269988,18.236117 8.64568487,18.236117 L8.64596112,18.236117 L12.0280895,18.236117 C12.157927,18.236117 12.262902,18.1305895 12.262902,18.000752 L12.262902,17.1543221 C12.262902,17.0244846 12.157927,16.9189572 12.0280895,16.9189572" id="Fill-9" fill="#00B900"></path>
                    <path d="M24.5712748,13.8243773 C24.7011122,13.8243773 24.8060872,13.7191261 24.8060872,13.5892886 L24.8060872,12.7425825 C24.8060872,12.612745 24.7011122,12.5074937 24.5712748,12.5074937 L21.1894226,12.5074937 L21.1888701,12.5074937 C21.1253326,12.5074937 21.0681489,12.5329087 21.0258826,12.5737937 C21.0250539,12.5748987 21.0239489,12.5754512 21.0231201,12.57628 C21.0217389,12.5776612 21.0203576,12.5790425 21.0195289,12.5804237 C20.9791964,12.6224137 20.9540576,12.6793212 20.9540576,12.7423062 L20.9540576,12.7425825 L20.9540576,18.0007244 L20.9540576,18.0012769 C20.9540576,18.0642619 20.9791964,18.1214457 21.0200814,18.1634357 C21.0206339,18.1648169 21.0220151,18.1661982 21.0231201,18.1673032 C21.0239489,18.1681319 21.0253301,18.1695132 21.0267114,18.1700657 C21.0687014,18.2106744 21.1256089,18.2360894 21.1888701,18.2360894 L21.1894226,18.2360894 L24.5712748,18.2360894 C24.7011122,18.2360894 24.8060872,18.1305619 24.8060872,18.0007244 L24.8060872,17.1542945 C24.8060872,17.024457 24.7011122,16.9189295 24.5712748,16.9189295 L22.2712175,16.9189295 L22.2712175,16.0299571 L24.5712748,16.0299571 C24.7011122,16.0299571 24.8060872,15.9249821 24.8060872,15.7948684 L24.8060872,14.9484385 C24.8060872,14.818601 24.7011122,14.7130735 24.5712748,14.7130735 L22.2712175,14.7130735 L22.2712175,13.8243773 L24.5712748,13.8243773 Z" id="Fill-11" fill="#00B900"></path>
                </g>
            </g>
        </g>
    </g>
</svg>