<?xml version="1.0" encoding="UTF-8"?>
<svg width="34px" height="34px" viewBox="0 0 34 34" version="1.1" xmlns="http://www.w3.org/2000/svg" xmlns:xlink="http://www.w3.org/1999/xlink">
    <!-- Generator: Sketch 56.3 (81716) - https://sketch.com -->
    <title>TW</title>
    <desc>Created with Sketch.</desc>
    <g id="Page-1" stroke="none" stroke-width="1" fill="none" fill-rule="evenodd">
        <g id="Teamcreate_login" transform="translate(-555.000000, -478.000000)" fill-rule="nonzero">
            <g id="SNS_BTN" transform="translate(555.000000, 478.000000)">
                <g id="TW">
                    <g id="Dark_Blue" fill="#1DA1F2">
                        <circle id="Oval" cx="16.5749983" cy="16.5749983" r="16.5749983"></circle>
                    </g>
                    <g id="Logo__x2014__FIXED" transform="translate(7.375874, 9.447749)" fill="#FFFFFF">
                        <path d="M6.16589937,15.8705609 C13.5169111,15.8705609 17.5363482,9.77924901 17.5363482,4.50011204 C17.5363482,4.32607456 17.5363482,4.15203708 17.5280607,3.98628709 C18.3070856,3.42273715 18.9866606,2.71829972 19.525348,1.91441231 C18.8126231,2.22933727 18.0418857,2.44481225 17.2297107,2.54426224 C18.0584607,2.04701229 18.6883106,1.26798737 18.9866606,0.331499966 C18.2159231,0.78731242 17.3623107,1.11881239 16.4506858,1.30113737 C15.7213859,0.522112447 14.6854485,0.0414374958 13.5334861,0.0414374958 C11.3290113,0.0414374958 9.53891153,1.83153731 9.53891153,4.03601209 C9.53891153,4.35093706 9.57206153,4.65757453 9.64664902,4.947637 C6.32336186,4.78188701 3.38129966,3.19068718 1.40887486,0.770737422 C1.06908739,1.35914986 0.870187412,2.04701229 0.870187412,2.77631222 C0.870187412,4.16032458 1.57462484,5.38687445 2.65199973,6.09959938 C1.9972873,6.08302438 1.38401236,5.9006994 0.845324914,5.60234943 C0.845324914,5.61892443 0.845324914,5.63549943 0.845324914,5.65207443 C0.845324914,7.59134923 2.22104977,9.19912406 4.05258709,9.57206153 C3.72108712,9.66322402 3.36472466,9.71294901 3.00007469,9.71294901 C2.74316222,9.71294901 2.49453725,9.68808651 2.24591227,9.63836152 C2.75144972,11.2295614 4.22662457,12.3815237 5.97528689,12.4146737 C4.60784953,13.4837611 2.88404971,14.1218986 1.0110749,14.1218986 C0.68786243,14.1218986 0.372937462,14.1053236 0.0580124941,14.0638861 C1.80667482,15.207561 3.9116996,15.8705609 6.16589937,15.8705609" id="Path"></path>
                    </g>
                </g>
            </g>
        </g>
    </g>
</svg>