<?xml version="1.0" encoding="utf-8"?>
<!-- Generator: Adobe Illustrator 19.0.0, SVG Export Plug-In . SVG Version: 6.00 Build 0)  -->
<svg version="1.1" id="レイヤー_1" xmlns="http://www.w3.org/2000/svg" xmlns:xlink="http://www.w3.org/1999/xlink" x="0px"
	 y="0px" viewBox="0 0 443.164 98.339" style="enable-background:new 0 0 443.164 98.339;" xml:space="preserve">
<style type="text/css">
	.st0{fill:#50B848;}
	.st1{fill:#ED1A3B;}
	.st2{fill:#0DB14B;}
</style>
<g>
	<g>
		<path d="M123.681,78.137l-8.385-36.491l-0.157,0.006l-8.197,36.485H94.557l-12.66-46.865h11.648l7.553,36.491h0.182l7.918-36.491
			h12.83l7.733,36.491h0.182l7.553-36.491h10.921l-12.458,46.865H123.681z"/>
		<path d="M152.694,54.659c0-7.22,1.607-12.952,4.823-17.199c3.579-4.61,8.857-6.916,15.834-6.916
			c6.916,0,12.163,2.336,15.743,7.007c3.215,4.186,4.823,9.889,4.823,17.108c0,7.401-1.578,13.165-4.732,17.289
			c-3.519,4.611-8.797,6.916-15.834,6.916c-7.098,0-12.407-2.305-15.925-6.916C154.271,67.824,152.694,62.061,152.694,54.659z
			 M164.433,54.659c0,10.799,2.972,16.197,8.918,16.197c5.884,0,8.827-5.398,8.827-16.197c0-10.738-2.943-16.107-8.827-16.107
			C167.405,38.552,164.433,43.921,164.433,54.659z"/>
		<path d="M203.198,78.137v-39.13c0-3.276-0.122-5.854-0.364-7.735h10.192c0,0.851,0.06,2.275,0.182,4.277
			c0.121,2.002,0.182,3.428,0.182,4.277c2.335-6.188,6.362-9.282,12.078-9.282l1.937,0.272v10.557
			c-1.092-0.303-2.154-0.455-3.185-0.455c-6.493,0-9.737,3.854-9.737,11.557v25.662H203.198z"/>
		<path d="M234.866,78.137V9.887h11.283v40.131h0.273l13.741-18.746h12.012l-16.471,21.203l18.018,25.662h-13.104l-14.196-22.841
			h-0.273v22.841H234.866z"/>
		<path d="M312.398,66.944l0.545,8.918c-4.732,2.002-9.404,3.003-14.014,3.003c-6.916,0-12.316-2.214-16.198-6.643
			c-3.641-4.186-5.46-9.797-5.46-16.835c0-6.611,1.516-12.224,4.55-16.835c3.518-5.338,8.432-8.008,14.742-8.008
			c12.497,0,18.746,8.342,18.746,25.024v2.185h-27.027c0,8.554,3.958,12.831,11.877,12.831
			C305.054,70.584,309.133,69.371,312.398,66.944z M288.282,50.655h16.107c0-8.311-2.596-12.467-7.782-12.467
			c-2.896,0-5.067,1.427-6.516,4.277C288.884,44.772,288.282,47.501,288.282,50.655z"/>
		<path d="M327.047,43.102l-0.637-9.1c5.035-2.305,9.979-3.458,14.833-3.458c6.611,0,11.253,1.472,13.923,4.413
			c2.669,2.943,4.004,7.751,4.004,14.424v20.475c0,2.671,0.212,5.431,0.638,8.281h-10.192c-0.425-1.395-0.637-3.518-0.637-6.37
			h-0.364c-3.495,4.732-7.835,7.098-13.016,7.098c-3.979,0-7.293-1.288-9.943-3.867c-2.651-2.578-3.977-5.869-3.977-9.873
			c0-6.37,2.698-10.798,8.099-13.286c3.822-1.759,9.342-2.64,16.562-2.64h2.275V47.47c0-5.945-2.912-8.918-8.736-8.918
			C334.964,38.552,330.688,40.07,327.047,43.102z M348.615,57.844v-2.639h-1.001c-4.429,0-7.767,0.425-10.01,1.273
			c-3.58,1.335-5.369,3.854-5.369,7.553c0,2.185,0.651,3.929,1.956,5.233c1.304,1.305,3.049,1.956,5.232,1.956
			C345.55,71.221,348.615,66.762,348.615,57.844z"/>
		<path d="M367.725,76.59l0.543-9.373c5.133,2.063,9.027,3.094,11.685,3.094c4.83,0,7.246-1.547,7.246-4.641
			c0-2.002-1.661-3.973-4.982-5.915l-4.618-2.73c-3.141-1.88-5.375-3.518-6.702-4.914c-2.115-2.243-3.171-5.005-3.171-8.28
			c0-4.004,1.759-7.28,5.277-9.828c3.154-2.305,6.794-3.458,10.92-3.458c4.004,0,7.917,0.637,11.739,1.911l-0.637,8.735
			c-3.561-1.395-6.848-2.093-9.863-2.093c-4.284,0-6.426,1.518-6.426,4.55c0,1.761,1.75,3.763,5.254,6.006l5.525,3.55
			c2.897,1.881,4.92,3.458,6.068,4.731c1.75,2.002,2.626,4.368,2.626,7.099c0,4.55-1.851,8.068-5.551,10.556
			c-3.155,2.184-7.129,3.275-11.921,3.275C376.005,78.865,371.667,78.107,367.725,76.59z"/>
		<path d="M413.588,31.272l9.465,35.399h0.182l9.009-35.399h10.92l-17.107,55.783c-2.307,7.521-6.766,11.284-13.377,11.284
			c-2.428,0-4.823-0.396-7.189-1.184l0.637-8.645c1.639,0.605,3.063,0.91,4.277,0.91c1.638,0,2.912-0.517,3.822-1.547
			c1.213-1.335,2.031-3.095,2.457-5.278l0.818-4.004l-15.561-47.32H413.588z"/>
	</g>
	<path class="st0" d="M71.693,6.264"/>
	<g>
		<path d="M73.984,5.713c-0.108-0.589-0.932-1.257-0.949-1.269c-5.131-3.787-10.864-5.251-16.125-4.017
			c-9.326,2.187-13.191,11.757-13.254,11.891c-1.586-0.071-3.241-0.006-5.011,0.324c-6.059,1.13-11.631,5.109-15.689,11.204
			c-3.847,5.778-5.88,12.705-5.944,19.803C7.453,44.736,0,52.863,0,62.707c0,10.582,8.608,19.19,19.19,19.19
			c7.354,0,13.747-4.164,16.968-10.253c3.22,6.089,9.614,10.253,16.968,10.253c10.581,0,19.189-8.608,19.189-19.19
			c0-10.581-8.608-19.189-19.189-19.189c-1.817,0-3.569,0.271-5.237,0.745c-0.842-2.108-1.536-4.315-2.049-6.575
			c-1.636-7.194-1.353-14.444,0.725-20.524c0.813,0.126,1.628,0.273,2.456,0.423c3.64,0.661,7.405,1.344,11.867,0.333
			c5.266-1.195,9.77-4.981,12.804-10.595C73.989,6.77,74.082,6.244,73.984,5.713z M26.721,26.354
			c3.376-5.07,7.905-8.36,12.754-9.265c0.839-0.157,1.656-0.24,2.459-0.268c-2.013,6.628-2.225,14.3-0.504,21.869
			c0.571,2.51,1.344,4.965,2.285,7.312c-3.202,1.811-5.832,4.516-7.556,7.771c-2.869-5.426-8.259-9.308-14.603-10.094
			C21.638,37.455,23.419,31.314,26.721,26.354z"/>
		<path class="st1" d="M19.19,77.373c-8.087,0-14.667-6.579-14.667-14.667c0-7.422,5.547-13.559,12.71-14.521
			c0.142,1.29,0.347,2.578,0.622,3.86c0.228,1.062,1.166,1.788,2.208,1.787c0.157,0,0.317-0.016,0.477-0.051
			c1.221-0.262,1.999-1.464,1.736-2.686c-0.2-0.929-0.35-1.868-0.468-2.81c6.84,1.24,12.048,7.227,12.048,14.419
			C33.857,70.794,27.277,77.373,19.19,77.373z"/>
		<path class="st1" d="M45.61,50.135c0.563,1.079,1.16,2.126,1.797,3.127c0.431,0.677,1.163,1.048,1.91,1.048
			c0.416,0,0.835-0.114,1.212-0.354c1.054-0.67,1.365-2.068,0.694-3.122c-0.491-0.772-0.952-1.581-1.395-2.407
			c1.062-0.245,2.162-0.388,3.298-0.388c8.087,0,14.667,6.58,14.667,14.667s-6.58,14.667-14.667,14.667s-14.667-6.579-14.667-14.667
			C38.458,57.368,41.335,52.701,45.61,50.135z"/>
		<path class="st2" d="M59.886,13.508c-3.56,0.807-11.006-0.543-11.484-0.626c1.646-3.443,5.716-7.18,9.512-8.043
			c3.47-0.789,7.151-0.052,10.742,2.117C66.356,10.465,63.357,12.72,59.886,13.508z"/>
	</g>
</g>
</svg>
