<?xml version="1.0" encoding="utf-8"?>
<!-- Generator: Adobe Illustrator 23.0.4, SVG Export Plug-In . SVG Version: 6.00 Build 0)  -->
<svg version="1.1" id="レイヤー_1" xmlns="http://www.w3.org/2000/svg" xmlns:xlink="http://www.w3.org/1999/xlink" x="0px"
	 y="0px" viewBox="0 0 98.242 98.3" style="enable-background:new 0 0 98.242 98.3;" xml:space="preserve">
<style type="text/css">
	.st0{fill:#0DB14B;}
	.st1{fill:#DDAF54;stroke:#000000;stroke-width:4.6;stroke-miterlimit:10;}
	.st2{fill:none;stroke:#000000;stroke-width:4.6;stroke-miterlimit:10;}
</style>
<g>
	<path d="M26.716,20.308c1.728,4.68,4.818,8.122,8.811,9.628c3.392,1.264,6.413,1.208,9.288,1.053
		c0.681,0.019,1.299-0.041,1.906-0.039l3.127-3.386c-0.013-0.001-0.025-0.003-0.038-0.004c-0.067-0.089-2.063-7.977-9.059-10.693
		c-3.904-1.573-8.578-1.033-12.955,1.372c-0.089,0.067-0.776,0.447-1.141,0.793C26.524,19.409,26.548,19.809,26.716,20.308z
		 M30.598,20.66c3.188-1.429,6.368-1.583,9.207-0.505c3.071,1.105,6.042,4.72,7.017,7.746c-0.62,0.032-6.808,0.234-9.689-0.84
		C34.338,26,32.109,23.855,30.598,20.66z"/>
	<path class="st0" d="M39.805,20.155c3.071,1.105,6.042,4.72,7.017,7.746c-0.62,0.032-6.808,0.234-9.689-0.84
		c-2.795-1.061-5.024-3.206-6.535-6.401C33.786,19.231,36.966,19.078,39.805,20.155z"/>
</g>
<g>
	<path d="M47.159,4.638c-3.334,3.711-4.938,8.049-4.409,12.284c0.464,3.59,1.922,6.236,3.4,8.708
		c0.301,0.611,0.642,1.13,0.923,1.668l4.453,1.188c-0.005-0.012-0.009-0.024-0.014-0.035c0.047-0.101,6.095-5.545,5.235-13
		c-0.429-4.187-3.086-8.07-7.254-10.821c-0.101-0.047-0.757-0.478-1.233-0.639C47.864,4.049,47.522,4.257,47.159,4.638z
		 M48.657,8.237c2.75,2.154,4.369,4.895,4.74,7.909c0.454,3.232-1.358,7.546-3.58,9.819c-0.317-0.534-3.381-5.914-3.775-8.963
		C45.677,14.035,46.536,11.063,48.657,8.237z"/>
	<path class="st0" d="M53.397,16.146c0.454,3.232-1.358,7.546-3.58,9.819c-0.317-0.534-3.381-5.914-3.775-8.963
		c-0.365-2.968,0.494-5.939,2.615-8.766C51.408,10.391,53.027,13.132,53.397,16.146z"/>
</g>
<g>
	<path d="M73.322,19.031c-0.365-0.346-1.052-0.726-1.141-0.793c-4.378-2.405-9.051-2.945-12.955-1.372
		c-6.996,2.716-8.992,10.605-9.059,10.693c-0.013,0.001-0.025,0.003-0.038,0.004l3.127,3.386c0.607-0.002,1.225,0.058,1.906,0.039
		c2.876,0.155,5.896,0.212,9.288-1.053c3.993-1.506,7.082-4.948,8.811-9.628C73.43,19.809,73.454,19.409,73.322,19.031z
		 M62.844,27.061c-2.881,1.073-9.069,0.871-9.689,0.84c0.975-3.026,3.946-6.64,7.017-7.746c2.839-1.077,6.019-0.924,9.207,0.505
		C67.868,23.855,65.64,26,62.844,27.061z"/>
	<path class="st0" d="M60.172,20.155c-3.071,1.105-6.042,4.72-7.017,7.746c0.62,0.032,6.808,0.234,9.689-0.84
		c2.795-1.061,5.024-3.206,6.535-6.401C66.191,19.231,63.011,19.078,60.172,20.155z"/>
</g>
<ellipse class="st1" cx="50.481" cy="61.323" rx="25.184" ry="31.228"/>
<g>
	<line class="st2" x1="26.297" y1="60.323" x2="56.645" y2="90.671"/>
	<line class="st2" x1="74.665" y1="60.323" x2="44.043" y2="90.944"/>
	<line class="st2" x1="26.297" y1="62.944" x2="57.061" y2="32.18"/>
	<line class="st2" x1="30.885" y1="80.938" x2="70.089" y2="41.734"/>
	<line class="st2" x1="74.665" y1="62.944" x2="44.043" y2="32.323"/>
	<line class="st2" x1="70.09" y1="80.913" x2="30.888" y2="41.711"/>
</g>
</svg>
