<?xml version="1.0" encoding="utf-8"?>
<!-- Generator: Adobe Illustrator 23.0.4, SVG Export Plug-In . SVG Version: 6.00 Build 0)  -->
<svg version="1.1" id="レイヤー_1" xmlns="http://www.w3.org/2000/svg" xmlns:xlink="http://www.w3.org/1999/xlink" x="0px"
	 y="0px" viewBox="0 0 97.763 98.339" style="enable-background:new 0 0 97.763 98.339;" xml:space="preserve">
<style type="text/css">
	.st0{fill:#0DB14B;}
	.st1{fill:#F18B80;}
</style>
<g>
	<path class="st0" d="M40.85,13.989c-1.928-1.56-3.853-2.151-4.758-2.393c-1.776-0.474-3.728-0.623-5.817-0.441
		c0.518,4.164,2.216,7.509,4.985,9.747c2.514,2.03,8.498,3.883,10.163,4.376c0.14,0.041,0.281,0.082,0.421,0.123
		c-0.001-0.209-0.007-0.523-0.032-0.903C45.735,23.343,45.362,17.639,40.85,13.989z"/>
	<g>
		<path class="st1" d="M57.639,27.287c-5.244,0-10.122,1.585-14.189,4.297C36.554,36.184,32,44.032,32,52.926
			c0,1.641,0.156,3.246,0.452,4.802c0.277,1.452-0.852,2.79-2.331,2.79c-1.05,0-1.957-0.743-2.158-1.773
			c-0.369-1.883-0.563-3.828-0.563-5.818c0-10.067,4.949-18.995,12.538-24.494c-1.633-0.466-3.445-0.791-5.398-0.791
			c-0.786,0-1.592,0.051-2.413,0.163c-0.704,0.096-1.39,0.244-2.065,0.42c-8.912,2.327-15.175,11.348-16.89,19.664
			c-2.607,12.642,5.955,22.875,9.179,26.728c1.213,1.45,2.485,2.747,3.786,3.934c7.921,7.224,17.055,9.825,22.42,10.749
			c4.355-0.768,11.232-2.692,17.824-7.427c1.04-0.747,2.074-1.558,3.089-2.452c1.588-1.398,3.134-2.974,4.59-4.774
			c2.508-3.1,4.488-6.185,5.97-9.248c2.066-3.694,3.249-7.947,3.249-12.472c0-0.475-0.015-0.947-0.041-1.417
			C82.5,38.029,71.301,27.287,57.639,27.287z"/>
		<path d="M87.439,47.779c-1.553-9.092-7.237-16.839-15.028-21.224c-2.884-1.624-6.048-2.8-9.41-3.394
			c-4.423-0.781-8.702-0.565-12.678,0.426c-0.029,0.01-0.059,0.019-0.088,0.029c0-0.003-0.001-0.006-0.001-0.009
			c-0.384-3.575-1.772-9.228-6.539-13.136c-4.179-3.426-9.97-4.639-16.245-3.501c-0.021,0.003-1.055,0.24-1.411,0.721
			c-0.322,0.433-0.47,0.947-0.448,1.576c0.226,5.771,2.208,10.713,5.693,14.118c-0.891,0.133-1.763,0.316-2.613,0.551
			c-2.124,0.585-4.112,1.489-5.959,2.619C15.376,31.041,10.354,39.27,8.765,46.979C5.718,61.75,15.294,73.195,18.899,77.505
			c9.705,11.598,22.522,15.188,29.299,16.297l0.367,0.06l0.367-0.062c6.659-1.114,19.233-4.716,28.626-16.325
			c2.326-2.876,4.242-5.754,5.773-8.627c0.699-1.312,1.326-2.624,1.86-3.934c0.609-1.231,1.124-2.515,1.56-3.834
			c0.727-2.591,1.124-5.317,1.126-8.136C87.879,51.253,87.738,49.528,87.439,47.779z M30.274,11.155
			c4.179-0.364,7.808,0.596,10.575,2.834c2.946,2.382,4.919,7.317,4.987,11.097c0.002,0.105,0.008,0.212,0.007,0.315
			c-0.054-0.016-0.207-0.06-0.426-0.125c-1.672-0.496-7.647-2.346-10.158-4.375C32.49,18.665,30.792,15.319,30.274,11.155z
			 M80.03,65.398c-1.482,3.062-3.462,6.147-5.97,9.248c-1.457,1.8-3.003,3.376-4.59,4.774c-1.015,0.894-2.049,1.705-3.089,2.452
			c-6.592,4.735-13.469,6.659-17.824,7.427c-5.365-0.924-14.499-3.524-22.42-10.749c-1.301-1.186-2.573-2.484-3.786-3.934
			c-3.224-3.853-11.786-14.086-9.179-26.728c1.715-8.317,7.978-17.337,16.89-19.664c0.675-0.176,1.361-0.324,2.065-0.42
			c0.821-0.112,1.627-0.163,2.413-0.163c1.953,0,3.764,0.326,5.398,0.791C32.349,33.931,27.4,42.859,27.4,52.926
			c0,1.99,0.194,3.935,0.563,5.818c0.202,1.031,1.108,1.773,2.158,1.773c1.478,0,2.608-1.338,2.331-2.79
			C32.155,56.172,32,54.567,32,52.926c0-8.894,4.554-16.742,11.451-21.342c4.066-2.712,8.945-4.297,14.189-4.297
			c13.662,0,24.861,10.742,25.599,24.223c0.026,0.469,0.041,0.941,0.041,1.417C83.279,57.451,82.096,61.703,80.03,65.398z"/>
	</g>
</g>
</svg>
