<?xml version="1.0" encoding="utf-8"?>
<!-- Generator: Adobe Illustrator 23.0.4, SVG Export Plug-In . SVG Version: 6.00 Build 0)  -->
<svg version="1.1" id="レイヤー_1" xmlns="http://www.w3.org/2000/svg" xmlns:xlink="http://www.w3.org/1999/xlink" x="0px"
	 y="0px" viewBox="0 0 98.075 98.3" style="enable-background:new 0 0 98.075 98.3;" xml:space="preserve">
<style type="text/css">
	.st0{fill:#FF9210;stroke:#000000;stroke-width:4.6;stroke-miterlimit:10;}
	.st1{fill:#0DB14B;}
</style>
<ellipse class="st0" cx="50.975" cy="55.777" rx="33.662" ry="32.65"/>
<circle cx="58.629" cy="76.153" r="2.297"/>
<g>
	<path class="st1" d="M23.216,25.782c-3.134-0.718-5.819-2.689-7.788-5.824c3.135-1.969,6.448-2.594,9.582-1.876
		c3.402,0.718,7.072,4.122,8.504,7.167C33.066,25.339,26.439,26.5,23.216,25.782z"/>
	<path d="M34.945,29.011l2.867-4.297c-0.09-0.09-3.578-8.687-11.905-10.661c-4.656-1.166-9.85,0.175-14.418,3.576
		c-0.09,0.089-0.806,0.626-1.165,1.074c-0.09,0.448,0,0.895,0.268,1.433c2.684,5.016,6.712,8.42,11.458,9.497
		c4.029,0.897,7.432,0.361,10.656-0.264C33.512,29.279,34.228,29.1,34.945,29.011z M33.514,25.249
		c-0.448,0.089-7.075,1.251-10.298,0.533c-3.134-0.718-5.819-2.689-7.788-5.824c3.135-1.969,6.448-2.594,9.582-1.876
		C28.412,18.8,32.082,22.204,33.514,25.249z"/>
</g>
</svg>
