<svg id="レイヤー_1" data-name="レイヤー 1" xmlns="http://www.w3.org/2000/svg" viewBox="0 0 59.536 88.59"><title>workeasy_pear</title><path d="M34.869,28.5c-6.125,6.876.124,14.167-5.642,19.179C15.2,59.868,17.341,73.506,21.046,79.814,28.171,91.945,39.675,91.65,41.665,91.85c.818.082,18.082,1.546,25.751-10.7,4.6-7.351,3.212-15.588,3.1-16.2a26.791,26.791,0,0,0-2.836-7.463c-5.165-10.527,1.284-20.733-7.131-30.292C55.643,21.62,41.723,20.805,34.869,28.5Z" transform="translate(-15.985 -5.654)" style="fill:#bfe22f;stroke:#000;stroke-miterlimit:10;stroke-width:4.6000000000000005px"/><path d="M62.506,19.39a13.9,13.9,0,0,0,7.5-7.856,14,14,0,0,0-10.9-.292c-3.614,1.42-7.026,5.849-8.038,9.468C51.576,20.725,59.089,20.777,62.506,19.39Z" transform="translate(-15.985 -5.654)" style="fill:#0db14b"/><path d="M52.719,25.1c3.666.092,7.513.052,11.784-1.682,5.027-2.064,8.833-6.559,10.86-12.58a2.411,2.411,0,0,0,.03-1.627,11.019,11.019,0,0,0-1.481-.968c-5.661-2.9-11.629-3.414-16.541-1.268-8.8,3.715-11.055,13.829-11.137,13.945l3.953,4.2C50.992,25.083,51.815,25.147,52.719,25.1Zm6.386-13.854a14,14,0,0,1,10.9.292,13.9,13.9,0,0,1-7.5,7.856c-3.417,1.387-10.93,1.335-11.439,1.32C52.079,17.091,55.491,12.662,59.105,11.242Z" transform="translate(-15.985 -5.654)"/></svg>