<?xml version="1.0" encoding="utf-8"?>
<!-- Generator: Adobe Illustrator 23.0.4, SVG Export Plug-In . SVG Version: 6.00 Build 0)  -->
<svg version="1.1" id="レイヤー_1" xmlns="http://www.w3.org/2000/svg" xmlns:xlink="http://www.w3.org/1999/xlink" x="0px"
	 y="0px" viewBox="0 0 97.973 98.3" style="enable-background:new 0 0 97.973 98.3;" xml:space="preserve">
<style type="text/css">
	.st0{fill:#ED1A3B;}
	.st1{fill:#0DB14B;}
</style>
<g>
	<path class="st0" d="M70.181,63.175c0.929-5.301-0.843-10.126-2.567-13.327L49.485,31.719c-3.201-1.724-8.028-3.497-13.327-2.567
		c-11.301,1.983-16.474,14.972-18.422,19.861c-2.545,6.393-5.461,18.989-1.446,27.358l0.061-0.028
		c0.615,1.358,1.412,2.572,2.369,3.609c0.211,0.228,0.431,0.447,0.662,0.662c1.036,0.956,2.25,1.753,3.609,2.369l-0.028,0.062
		c8.368,4.015,20.964,1.099,27.357-1.447C55.209,79.649,68.197,74.477,70.181,63.175z"/>
	<path d="M71.485,47.341l-0.156-0.283L52.274,28.003l-0.283-0.157c-1.952-1.08-4.463-2.199-7.347-2.886l29.729,29.729
		C73.685,51.804,72.566,49.293,71.485,47.341z"/>
	<path d="M52.021,85.869c5.542-2.207,20.262-8.069,22.69-21.9c0.585-3.337,0.326-6.484-0.339-9.281L44.643,24.96
		c-2.796-0.665-5.944-0.924-9.28-0.339c-13.831,2.426-19.693,17.148-21.9,22.69C9.84,56.41,6.34,74.09,15.75,83.5l0.083,0.083
		C25.242,92.992,42.922,89.493,52.021,85.869z M22.963,83.043l0.028-0.062c-1.359-0.616-2.573-1.413-3.609-2.369
		c-0.231-0.214-0.45-0.434-0.662-0.662c-0.956-1.036-1.753-2.25-2.369-3.609L16.29,76.37c-4.015-8.369-1.099-20.965,1.446-27.358
		c1.947-4.889,7.12-17.878,18.422-19.861c5.298-0.93,10.125,0.843,13.327,2.567l18.129,18.129c1.724,3.201,3.497,8.027,2.567,13.327
		C68.197,74.477,55.209,79.649,50.32,81.596C43.927,84.142,31.331,87.058,22.963,83.043z"/>
	<ellipse transform="matrix(0.7071 -0.7071 0.7071 0.7071 -34.7682 43.9738)" cx="35.697" cy="63.956" rx="4.004" ry="2.295"/>
	<ellipse transform="matrix(0.7071 -0.7071 0.7071 0.7071 -20.9747 40.9771)" cx="38.976" cy="45.807" rx="4.004" ry="2.295"/>
	<ellipse transform="matrix(0.7071 -0.7071 0.7071 0.7071 -26.9931 55.5067)" cx="53.506" cy="60.337" rx="4.004" ry="2.295"/>
</g>
<g>
	<path d="M47.544,10.324c-2.658,5.77-2.975,11.652-0.736,16.603c1.916,4.193,4.686,6.862,7.416,9.311
		c0.596,0.63,1.207,1.133,1.751,1.681l5.864-0.233c-0.01-0.012-0.02-0.025-0.03-0.038c0.019-0.14,5.325-9.041,1.471-17.786
		c-2.099-4.932-6.793-8.654-12.9-10.43c-0.14-0.019-1.101-0.296-1.741-0.313C48.18,9.341,47.842,9.723,47.544,10.324z
		 M50.723,14.137c4.157,1.584,7.159,4.309,8.745,7.835c1.77,3.76,1.191,9.69-0.656,13.293c-0.587-0.53-6.341-5.92-7.968-9.48
		C49.282,22.312,49.207,18.374,50.723,14.137z"/>
	<path class="st1" d="M59.467,21.972c1.77,3.76,1.191,9.69-0.656,13.293c-0.587-0.53-6.341-5.92-7.968-9.48
		c-1.562-3.472-1.637-7.411-0.121-11.648C54.88,15.72,57.881,18.445,59.467,21.972z"/>
</g>
<g>
	<path d="M80.061,14.622c-6.344,0.34-11.695,2.801-15.031,7.091c-2.815,3.65-3.885,7.345-4.779,10.902
		c-0.279,0.821-0.439,1.596-0.671,2.333l2.941,5.079c0.006-0.015,0.013-0.03,0.019-0.044c0.133-0.048,10.481,0.495,16.42-6.992
		c3.384-4.157,4.488-10.045,3.212-16.276c-0.048-0.133-0.252-1.112-0.535-1.686C81.226,14.726,80.731,14.605,80.061,14.622z
		 M78.17,19.211c0.537,4.416-0.474,8.342-2.854,11.389c-2.501,3.319-8.017,5.572-12.065,5.618c0.195-0.766,2.28-8.37,4.671-11.469
		C70.266,21.749,73.715,19.846,78.17,19.211z"/>
	<path class="st1" d="M75.316,30.601c-2.501,3.319-8.017,5.572-12.065,5.618c0.195-0.766,2.28-8.37,4.671-11.469
		c2.344-3.001,5.793-4.903,10.248-5.538C78.707,23.627,77.696,27.553,75.316,30.601z"/>
</g>
<g>
	<path d="M90.659,51.139c-0.017-0.64-0.294-1.601-0.313-1.741c-1.776-6.107-5.498-10.801-10.43-12.9
		C71.17,32.644,62.27,37.95,62.13,37.969c-0.012-0.01-0.025-0.02-0.038-0.03l-0.233,5.864c0.549,0.545,1.052,1.155,1.681,1.751
		c2.449,2.73,5.119,5.5,9.311,7.416c4.951,2.239,10.833,1.922,16.603-0.736C90.056,51.937,90.437,51.599,90.659,51.139z
		 M73.994,48.935c-3.56-1.627-8.95-7.381-9.48-7.968c3.603-1.847,9.533-2.426,13.293-0.656c3.526,1.586,6.251,4.588,7.835,8.745
		C81.405,50.572,77.467,50.497,73.994,48.935z"/>
	<path class="st1" d="M77.807,40.311c-3.76-1.77-9.69-1.191-13.293,0.656c0.53,0.587,5.92,6.341,9.48,7.968
		c3.472,1.562,7.411,1.637,11.648,0.121C84.058,44.899,81.333,41.897,77.807,40.311z"/>
</g>
</svg>
