<?xml version="1.0" encoding="utf-8"?>
<!-- Generator: Adobe Illustrator 23.0.4, SVG Export Plug-In . SVG Version: 6.00 Build 0)  -->
<svg version="1.1" id="レイヤー_1" xmlns="http://www.w3.org/2000/svg" xmlns:xlink="http://www.w3.org/1999/xlink" x="0px"
	 y="0px" viewBox="0 0 98.102 98.3" style="enable-background:new 0 0 98.102 98.3;" xml:space="preserve">
<style type="text/css">
	.st0{fill:#ADC146;stroke:#000000;stroke-width:4.5;stroke-miterlimit:10;}
	.st1{fill:#F2AB3F;}
	.st2{fill:none;stroke:#000000;stroke-width:4.5;stroke-miterlimit:10;}
	.st3{fill:#EB803A;stroke:#000000;stroke-width:4.5;stroke-miterlimit:10;}
</style>
<g>
	<path class="st0" d="M70.075,73.01c16.483-16.483,17.659-42.47,3.539-60.315c-0.891-1.127-2.574-1.219-3.59-0.203L9.556,72.959
		c-1.016,1.016-0.923,2.698,0.203,3.59C27.605,90.669,53.592,89.493,70.075,73.01z"/>
</g>
<g>
	<g>
		<path class="st1" d="M72.8,13.316c-0.505-1.475-1.82-1.78-2.923-0.677L52.49,30.025c-1.102,1.102-0.744,1.809,0.797,1.569
			c0,0,0.8-0.124,1.692,0.768c2.415,2.415-1.225,9.971-8.131,16.877S32.386,59.785,29.971,57.37
			c-0.892-0.892-0.768-1.692-0.768-1.692c0.239-1.541-0.467-1.899-1.569-0.797L9.703,72.813c-1.102,1.102-0.801,2.428,0.67,2.945
			c0,0,20.031,7.048,39.846-4.267c2.813-1.606,17.93-10.607,23.225-29.822C77.486,27.003,72.8,13.316,72.8,13.316z"/>
		<path class="st2" d="M72.8,13.316c-0.505-1.475-1.82-1.78-2.923-0.677L52.49,30.025c-1.102,1.102-0.744,1.809,0.797,1.569
			c0,0,0.8-0.124,1.692,0.768c2.415,2.415-1.225,9.971-8.131,16.877S32.386,59.785,29.971,57.37
			c-0.892-0.892-0.768-1.692-0.768-1.692c0.239-1.541-0.467-1.899-1.569-0.797L9.703,72.813c-1.102,1.102-0.801,2.428,0.67,2.945
			c0,0,20.031,7.048,39.846-4.267c2.813-1.606,17.93-10.607,23.225-29.822C77.486,27.003,72.8,13.316,72.8,13.316z"/>
	</g>
	<path class="st3" d="M29.971,57.37c2.415,2.415,9.971-1.225,16.877-8.131s10.546-14.462,8.131-16.877
		c-0.446-0.446-1.069-0.684-1.83-0.734c-1.422-0.092-2.798,0.536-3.806,1.544L30.781,51.734c-1.008,1.008-1.636,2.384-1.544,3.806
		C29.287,56.302,29.525,56.924,29.971,57.37z"/>
</g>
</svg>
