<?xml version="1.0" encoding="utf-8"?>
<!-- Generator: Adobe Illustrator 23.0.4, SVG Export Plug-In . SVG Version: 6.00 Build 0)  -->
<svg version="1.1" id="レイヤー_1" xmlns="http://www.w3.org/2000/svg" xmlns:xlink="http://www.w3.org/1999/xlink" x="0px"
	 y="0px" viewBox="0 0 98.257 98.3" style="enable-background:new 0 0 98.257 98.3;" xml:space="preserve">
<style type="text/css">
	.st0{fill:#C27EFC;stroke:#000000;stroke-width:4.6;stroke-miterlimit:10;}
	.st1{fill:#0DB14B;stroke:#000000;stroke-miterlimit:10;}
	.st2{stroke:#000000;stroke-miterlimit:10;}
</style>
<circle class="st0" cx="46.464" cy="34.705" r="7.865"/>
<circle class="st0" cx="64.56" cy="64.665" r="7.865"/>
<circle class="st0" cx="71.47" cy="50.003" r="7.865"/>
<circle class="st0" cx="26.438" cy="63.197" r="10.193"/>
<circle class="st0" cx="56.877" cy="48.261" r="10.193"/>
<circle class="st0" cx="50.84" cy="69.967" r="10.193"/>
<circle class="st0" cx="29.483" cy="47.972" r="8.02"/>
<circle class="st0" cx="39.557" cy="60.389" r="10.193"/>
<circle class="st0" cx="39.101" cy="41.772" r="8.298"/>
<circle class="st0" cx="37.001" cy="78.865" r="7.865"/>
<circle class="st0" cx="20.905" cy="81.193" r="7.865"/>
<g>
	<path class="st1" d="M71.292,36.793c3.564-0.434,6.775-2.312,9.325-5.566c-3.254-2.55-6.862-3.629-10.426-3.195
		c-3.862,0.403-8.333,3.759-10.276,6.975C60.402,35.159,67.628,37.217,71.292,36.793z"/>
	<path class="st2" d="M60.335,39.676c3.508,1.068,7.226,2.058,11.805,1.528c5.396-0.646,10.264-3.96,13.827-9.22
		c0.36-0.566,0.512-1.053,0.464-1.56c-0.346-0.539-1.08-1.218-1.169-1.328c-4.68-4.307-10.294-6.398-15.6-5.642
		c-9.478,1.227-14.349,10.373-14.459,10.462l2.687,5.105C58.675,39.202,59.45,39.484,60.335,39.676z M70.191,28.032
		c3.564-0.434,7.172,0.645,10.426,3.195c-2.55,3.254-5.761,5.132-9.325,5.566c-3.663,0.424-10.889-1.634-11.376-1.785
		C61.858,31.791,66.329,28.435,70.191,28.032z"/>
</g>
<g>
	<path class="st1" d="M65.881,22.344c1.979-2.996,2.63-6.658,1.804-10.709c-4.051,0.826-7.21,2.874-9.189,5.87
		c-2.196,3.203-2.537,8.782-1.347,12.347C57.58,29.578,63.83,25.408,65.881,22.344z"/>
	<path class="st2" d="M60.977,32.557c3.087-1.98,6.25-4.17,8.814-8.001c3.005-4.528,3.635-10.384,1.938-16.506
		c-0.197-0.641-0.47-1.072-0.888-1.364c-0.635-0.085-1.628,0.033-1.769,0.03c-6.313,0.773-11.544,3.694-14.407,8.225
		c-5.207,8.013-1.399,17.65-1.402,17.791l5.629,1.262C59.54,33.514,60.257,33.106,60.977,32.557z M58.496,17.504
		c1.979-2.996,5.139-5.044,9.189-5.87c0.826,4.051,0.175,7.714-1.804,10.709c-2.051,3.065-8.301,7.234-8.732,7.507
		C55.959,26.287,56.3,20.707,58.496,17.504z"/>
</g>
</svg>
