<?xml version="1.0" encoding="utf-8"?>
<!-- Generator: Adobe Illustrator 23.0.4, SVG Export Plug-In . SVG Version: 6.00 Build 0)  -->
<svg version="1.1" id="レイヤー_1" xmlns="http://www.w3.org/2000/svg" xmlns:xlink="http://www.w3.org/1999/xlink" x="0px"
	 y="0px" viewBox="0 0 98.178 98.3" style="enable-background:new 0 0 98.178 98.3;" xml:space="preserve">
<style type="text/css">
	.st0{fill:#E6213E;}
	.st1{fill:none;stroke:#000000;stroke-width:4.6;stroke-miterlimit:10;}
	.st2{fill:#0DB14B;}
</style>
<g>
	<path class="st0" d="M60.632,89.97c-5.442,0-10.124-2.346-13.128-4.349c-2.921,1.965-7.634,4.349-13.119,4.349
		c-1.052,0-2.104-0.09-3.127-0.268c-5.921-1.026-10.876-4.886-14.728-11.471c-2.948-5.041-4.366-10.258-4.839-12.268
		c-0.917-3.897-4.799-23.816,8.875-33.2c3.885-2.666,8.503-4.018,13.726-4.018c6.312,0,11.583,1.974,13.216,2.657
		c1.633-0.683,6.903-2.657,13.216-2.657c5.223,0,9.841,1.352,13.726,4.018c13.674,9.384,9.792,29.303,8.875,33.2
		c-0.473,2.01-1.891,7.227-4.839,12.268c-3.852,6.585-8.807,10.444-14.728,11.471C62.736,89.88,61.684,89.97,60.632,89.97z"/>
	<path class="st1" d="M60.632,89.97c-5.442,0-10.124-2.346-13.128-4.349c-2.921,1.965-7.634,4.349-13.119,4.349
		c-1.052,0-2.104-0.09-3.127-0.268c-5.921-1.026-10.876-4.886-14.728-11.471c-2.948-5.041-4.366-10.258-4.839-12.268
		c-0.917-3.897-4.799-23.816,8.875-33.2c3.885-2.666,8.503-4.018,13.726-4.018c6.312,0,11.583,1.974,13.216,2.657
		c1.633-0.683,6.903-2.657,13.216-2.657c5.223,0,9.841,1.352,13.726,4.018c13.674,9.384,9.792,29.303,8.875,33.2
		c-0.473,2.01-1.891,7.227-4.839,12.268c-3.852,6.585-8.807,10.444-14.728,11.471C62.736,89.88,61.684,89.97,60.632,89.97z"/>
</g>
<path class="st2" d="M48.108,16.989c-2.624,3.246-3.475,9.168-2.533,13.123c0.699-0.377,7.598-4.261,10.035-7.345
	c2.352-3.014,3.365-6.838,2.898-11.332C54.075,11.986,50.497,13.928,48.108,16.989z"/>
<path d="M59.765,7.309c-6.354,0.274-11.799,2.774-15.01,7.065c-5.531,7.201-3.07,16.485-2.822,17.516l5.603,1.773
	c0.666-0.41,1.388-0.755,2.125-1.231c3.233-1.731,6.559-3.665,9.417-7.282c3.352-4.277,4.441-10.065,3.231-16.302
	c-0.146-0.655-0.384-1.106-0.778-1.43C60.905,7.284,59.906,7.324,59.765,7.309z M57.995,12.104
	c0.504,4.103-0.433,7.703-2.641,10.534c-2.286,2.894-8.845,6.559-9.296,6.797c-0.008-0.032-0.014-0.068-0.021-0.1
	c-0.011,0.006-0.034,0.019-0.042,0.023c-0.906-3.647-0.064-9.105,2.314-12.202c2.209-2.83,5.583-4.547,9.637-5.269
	c0.009,0.076,0.009,0.148,0.017,0.224C57.974,12.108,57.985,12.105,57.995,12.104z"/>
</svg>
