<?xml version="1.0" encoding="utf-8"?>
<!-- Generator: Adobe Illustrator 23.0.4, SVG Export Plug-In . SVG Version: 6.00 Build 0)  -->
<svg version="1.1" id="レイヤー_1" xmlns="http://www.w3.org/2000/svg" xmlns:xlink="http://www.w3.org/1999/xlink" x="0px"
	 y="0px" viewBox="0 0 97.41 98.3" style="enable-background:new 0 0 97.41 98.3;" xml:space="preserve">
<style type="text/css">
	.st0{fill:#FEDA00;}
</style>
<g>
	<path class="st0" d="M69.173,85.391c1.19-0.111,2.606-0.369,4.118-0.875c-0.309-0.206-0.631-0.413-0.986-0.608
		c-1.738-0.952-3.258-1.974-4.586-2.989c-0.002-0.003-2.076-1.68-2.907-2.463l0.009,0c-1.21-1.097-2.359-2.265-3.471-3.474
		c0.155,0.169,0.306,0.342,0.464,0.508c-0.005-0.005-0.01-0.01-0.015-0.015c-0.198-0.206-0.382-0.418-0.574-0.628
		c-0.405-0.442-0.793-0.876-1.165-1.313c-0.254-0.299-0.516-0.601-0.75-0.887c0.16,0.194,0.326,0.382,0.488,0.574
		c-0.261-0.309-0.524-0.617-0.779-0.933c0.017,0.021,0.033,0.042,0.049,0.063c-0.022-0.027-0.041-0.051-0.062-0.078
		c-0.279-0.348-0.538-0.677-0.776-0.984c-0.023-0.03-0.049-0.062-0.071-0.092c0.018,0.024,0.037,0.047,0.056,0.071
		c-0.336-0.436-0.665-0.88-0.99-1.328c0.193,0.264,0.384,0.532,0.58,0.793c-0.387-0.513-0.675-0.91-0.856-1.164
		c-0.057-0.079-0.118-0.154-0.174-0.234c-1.083-1.54-2.078-3.118-2.985-4.726c-8.702-15.388-9.317-33.573-1.982-48.372
		c0.047-0.095,0.09-0.192,0.137-0.287c0.003-0.006,0.008-0.011,0.011-0.017c0.025-0.05,0.048-0.101,0.073-0.15
		c-0.386,0.357-0.78,0.705-1.152,1.077C40.188,27.55,36.618,42.578,40.326,55.639c0.428,1.509-0.387,3.087-1.883,3.559
		c-0.677,0.214-1.412-0.147-1.634-0.822c-0.001-0.004-0.003-0.008-0.004-0.012c-0.043-0.131-0.079-0.264-0.121-0.396
		c-0.153-0.483-0.302-0.968-0.437-1.456c-0.063-0.229-0.117-0.459-0.177-0.689c-0.102-0.395-0.203-0.79-0.293-1.187
		c-0.058-0.258-0.109-0.517-0.163-0.776c-0.077-0.373-0.152-0.746-0.218-1.121c-0.048-0.271-0.091-0.544-0.134-0.816
		c-0.058-0.367-0.112-0.735-0.16-1.104c-0.036-0.276-0.069-0.552-0.099-0.828c-0.041-0.37-0.075-0.741-0.106-1.113
		c-0.023-0.275-0.045-0.55-0.063-0.825c-0.024-0.38-0.04-0.761-0.054-1.141c-0.01-0.266-0.022-0.533-0.026-0.799
		c-0.007-0.405-0.003-0.809,0.001-1.215c0.003-0.243,0-0.487,0.007-0.73c0.014-0.491,0.041-0.983,0.071-1.475
		c0.01-0.156,0.013-0.313,0.025-0.469c0.047-0.644,0.109-1.289,0.185-1.932c0.023-0.192,0.054-0.383,0.079-0.574
		c0.06-0.456,0.122-0.911,0.196-1.365c0.041-0.248,0.09-0.496,0.135-0.743c0.072-0.397,0.145-0.794,0.229-1.19
		c0.056-0.266,0.118-0.531,0.179-0.796c0.087-0.377,0.176-0.753,0.273-1.129c0.07-0.271,0.144-0.541,0.219-0.811
		c0.103-0.369,0.21-0.738,0.322-1.105c0.083-0.27,0.167-0.539,0.255-0.807c0.121-0.369,0.248-0.736,0.379-1.102
		c0.093-0.261,0.186-0.522,0.284-0.782c0.144-0.38,0.296-0.757,0.451-1.134c0.099-0.242,0.195-0.484,0.298-0.724
		c0.178-0.413,0.368-0.823,0.559-1.232c0.093-0.2,0.181-0.401,0.278-0.6c0.289-0.597,0.591-1.189,0.909-1.776
		c0.004-0.008,0.008-0.017,0.013-0.025c0.324-0.598,0.665-1.19,1.019-1.777c0.104-0.173,0.217-0.343,0.324-0.514
		c0.254-0.409,0.511-0.817,0.78-1.22c0.14-0.21,0.288-0.417,0.432-0.625c0.179-0.259,0.352-0.521,0.537-0.777
		c-0.432,0.397-0.854,0.802-1.269,1.216C26.552,36.07,25.891,60.423,40.45,74.982C48.014,82.546,58.47,86.212,69.173,85.391z"/>
	<path d="M74.427,88.872c2.971-0.577,4.516-3.964,2.868-6.503c-0.107-0.165-0.193-0.273-0.25-0.304
		c-0.048-0.028-0.1-0.057-0.146-0.084c-0.673-0.395-1.346-0.79-2.019-1.185c-5.765-3.563-10.707-8.211-14.688-13.871
		C48.27,49.981,47.91,28.136,58.891,12.405c1.243-1.781-3.575-5.142-4.728-4.679c-5.638,2.261-10.828,5.679-15.18,10.031
		c-16.995,16.995-17.656,43.985-1.474,60.167C47.113,87.527,60.869,91.504,74.427,88.872z M76.332,81.685l0.021,0.012
		c-0.008-0.004-0.017-0.008-0.025-0.012L76.332,81.685z M41.925,20.698c0.415-0.415,0.837-0.82,1.269-1.216
		c-0.185,0.256-0.358,0.518-0.537,0.777c-0.144,0.208-0.291,0.415-0.432,0.625c-0.269,0.403-0.525,0.811-0.78,1.22
		c-0.107,0.172-0.219,0.341-0.324,0.514c-0.354,0.587-0.695,1.179-1.019,1.777c-0.004,0.008-0.008,0.017-0.013,0.025
		c-0.318,0.587-0.62,1.179-0.909,1.776c-0.096,0.199-0.184,0.4-0.278,0.6c-0.191,0.409-0.381,0.819-0.559,1.232
		c-0.104,0.24-0.199,0.483-0.298,0.724c-0.154,0.377-0.307,0.754-0.451,1.134c-0.098,0.26-0.191,0.521-0.284,0.782
		c-0.131,0.366-0.258,0.733-0.379,1.102c-0.088,0.269-0.173,0.538-0.255,0.807c-0.113,0.367-0.22,0.736-0.322,1.105
		c-0.075,0.27-0.149,0.54-0.219,0.811c-0.097,0.375-0.186,0.752-0.273,1.129c-0.061,0.265-0.123,0.53-0.179,0.796
		c-0.083,0.396-0.157,0.793-0.229,1.19c-0.045,0.248-0.094,0.495-0.135,0.743c-0.075,0.454-0.136,0.91-0.196,1.365
		c-0.025,0.191-0.057,0.383-0.079,0.574c-0.076,0.644-0.138,1.288-0.185,1.932c-0.011,0.157-0.015,0.313-0.025,0.469
		c-0.031,0.492-0.057,0.983-0.071,1.475c-0.007,0.244-0.005,0.487-0.007,0.73c-0.004,0.405-0.008,0.81-0.001,1.215
		c0.005,0.267,0.017,0.533,0.026,0.799c0.014,0.381,0.03,0.761,0.054,1.141c0.017,0.276,0.04,0.55,0.063,0.825
		c0.031,0.371,0.066,0.742,0.106,1.113c0.03,0.277,0.063,0.553,0.099,0.828c0.048,0.369,0.102,0.736,0.16,1.104
		c0.043,0.272,0.086,0.545,0.134,0.816c0.067,0.375,0.142,0.748,0.218,1.121c0.053,0.259,0.104,0.518,0.163,0.776
		c0.09,0.397,0.191,0.792,0.293,1.187c0.059,0.23,0.113,0.461,0.177,0.689c0.135,0.488,0.283,0.973,0.437,1.456
		c0.042,0.132,0.078,0.265,0.121,0.396c0.001,0.004,0.003,0.008,0.004,0.012c0.222,0.674,0.957,1.035,1.634,0.822
		c1.496-0.472,2.312-2.05,1.883-3.559c-3.708-13.061-0.138-28.089,10.551-38.778c0.372-0.372,0.766-0.72,1.152-1.077
		c-0.025,0.05-0.048,0.101-0.073,0.15c-0.003,0.006-0.008,0.011-0.011,0.017c-0.047,0.095-0.09,0.192-0.137,0.287
		c-7.335,14.799-6.72,32.984,1.982,48.372c0.907,1.608,1.902,3.186,2.985,4.726c0.056,0.08,0.118,0.154,0.174,0.234
		c-0.086-0.12-0.156-0.218-0.186-0.262c0.151,0.214,0.308,0.421,0.463,0.632c0.325,0.448,0.654,0.892,0.99,1.328
		c0.265,0.344,0.532,0.684,0.804,1.02c0.255,0.316,0.517,0.624,0.779,0.933c0.506,0.6,1.024,1.187,1.553,1.761
		c1.113,1.209,2.262,2.377,3.471,3.474l-0.009,0c0.83,0.782,1.798,1.614,2.893,2.452c-0.09-0.018-0.18-0.037-0.269-0.056
		c0.095,0.02,0.189,0.045,0.284,0.067c1.328,1.014,2.848,2.036,4.586,2.989c0.355,0.195,0.677,0.402,0.986,0.608
		c-1.513,0.507-2.928,0.764-4.118,0.875c-10.704,0.821-21.16-2.845-28.723-10.409C25.891,60.423,26.552,36.07,41.925,20.698z"/>
</g>
</svg>
