<?xml version="1.0" encoding="utf-8"?>
<!-- Generator: Adobe Illustrator 23.0.4, SVG Export Plug-In . SVG Version: 6.00 Build 0)  -->
<svg version="1.1" id="レイヤー_1" xmlns="http://www.w3.org/2000/svg" xmlns:xlink="http://www.w3.org/1999/xlink" x="0px"
	 y="0px" viewBox="0 0 98.275 98.3" style="enable-background:new 0 0 98.275 98.3;" xml:space="preserve">
<style type="text/css">
	.st0{fill:#9B7754;}
	.st1{fill:none;stroke:#000000;stroke-width:4.6;stroke-miterlimit:10;}
	.st2{fill:#0DB14B;stroke:#000000;stroke-width:4.6;stroke-miterlimit:10;}
	.st3{fill:#C0FF9C;stroke:#000000;stroke-width:4.6;stroke-miterlimit:10;}
</style>
<g>
	<g>
		<g>
			<path class="st0" d="M75.937,44.828c-6.106,11.861-25.564,11.807-26.944,11.786c-1.483-0.023-20.718-0.556-26.262-12.32
				c-0.482-1.022-1.306-3.082-1.491-5.715c0.01,3.517,0.047,8.049,0.152,13.343c0.185,9.349,0.424,10.82,0.83,12.413
				c2.476,9.724,10.146,15.666,10.146,15.666c7.106,5.426,14.673,5.658,17.045,5.637c2.504,0.033,9.672-0.202,16.538-5.157
				c0,0,8.17-5.965,10.751-16.145c0.326-1.284,0.639-2.766,0.83-12.413c0.107-5.415,0.143-10.042,0.152-13.591
				C77.602,39.851,77.247,42.282,75.937,44.828z"/>
		</g>
		<g>
			<path class="st1" d="M75.937,44.828c-6.106,11.861-25.564,11.807-26.944,11.786c-1.483-0.023-20.718-0.556-26.262-12.32
				c-0.482-1.022-1.306-3.082-1.491-5.715c0.01,3.517,0.047,8.049,0.152,13.343c0.185,9.349,0.424,10.82,0.83,12.413
				c2.476,9.724,10.146,15.666,10.146,15.666c7.106,5.426,14.673,5.658,17.045,5.637c2.504,0.033,9.672-0.202,16.538-5.157
				c0,0,8.17-5.965,10.751-16.145c0.326-1.284,0.639-2.766,0.83-12.413c0.107-5.415,0.143-10.042,0.152-13.591
				C77.602,39.851,77.247,42.282,75.937,44.828z"/>
		</g>
	</g>
	<path class="st2" d="M23.92,45.675c6.548,10.626,21.861,10.632,25.479,10.634c3.587,0.001,18.63,0.008,25.426-10.524
		c1.808-2.801,2.532-5.573,2.858-7.454c0.032-0.452,0.051-1.097-0.016-1.863c-0.609-6.943-7.263-11.431-9.278-12.789
		c-6.814-4.595-13.93-4.614-18.684-4.64c-5.4-0.029-13.579-0.051-20.626,5.557c-1.93,1.536-7.031,5.595-7.785,12.259
		c-0.108,0.959-0.114,1.871-0.054,2.724c-0.002-0.604-0.003-1.188-0.003-1.73C21.486,39.852,22.121,42.757,23.92,45.675z"/>
</g>
<ellipse class="st3" cx="49.456" cy="37.34" rx="9.539" ry="5.528"/>
</svg>
