<?xml version="1.0" encoding="utf-8"?>
<!-- Generator: Adobe Illustrator 23.0.4, SVG Export Plug-In . SVG Version: 6.00 Build 0)  -->
<svg version="1.1" id="レイヤー_1" xmlns="http://www.w3.org/2000/svg" xmlns:xlink="http://www.w3.org/1999/xlink" x="0px"
	 y="0px" viewBox="0 0 98.279 98.3" style="enable-background:new 0 0 98.279 98.3;" xml:space="preserve">
<style type="text/css">
	.st0{fill:#F96C15;stroke:#000000;stroke-width:4.6;stroke-miterlimit:10;}
	.st1{fill:#0DB14B;}
</style>
<path class="st0" d="M66.731,28.709c7.575,6.286,10.95,16.058,10.213,24.126c-2.147,23.506-38.079,41.093-56.245,32.859
	c-1.026-0.465-8.4-3.808-9.557-9.972c-1.089-5.804,4.48-8.001,9.099-18.199c5.603-12.368,1.253-17.613,7.77-25.735
	c4.402-5.486,10.099-7.532,12.373-8.407C48.784,20.15,59.341,22.576,66.731,28.709z"/>
<g>
	<path class="st1" d="M72.273,23.638c3.78-0.415,7.205-2.364,9.947-5.779c-3.415-2.742-7.223-3.929-11.003-3.514
		c-4.096,0.378-8.874,3.877-10.972,7.26C60.759,21.771,68.388,24.041,72.273,23.638z"/>
	<path d="M60.632,26.555c3.703,1.176,7.628,2.27,12.485,1.767c5.723-0.616,10.922-4.066,14.761-9.593
		c0.389-0.595,0.555-1.109,0.511-1.647c-0.36-0.575-1.129-1.304-1.222-1.421c-4.903-4.62-10.823-6.906-16.454-6.172
		c-10.054,1.181-15.328,10.807-15.446,10.9l2.782,5.441C58.879,26.032,59.697,26.34,60.632,26.555z M71.217,14.345
		c3.78-0.415,7.588,0.773,11.003,3.514c-2.742,3.415-6.167,5.364-9.947,5.779c-3.886,0.403-11.514-1.867-12.028-2.033
		C62.344,18.222,67.121,14.723,71.217,14.345z"/>
</g>
</svg>
