<?xml version="1.0" encoding="utf-8"?>
<!-- Generator: Adobe Illustrator 23.0.4, SVG Export Plug-In . SVG Version: 6.00 Build 0)  -->
<svg version="1.1" id="レイヤー_1" xmlns="http://www.w3.org/2000/svg" xmlns:xlink="http://www.w3.org/1999/xlink" x="0px"
	 y="0px" viewBox="0 0 98.102 98.3" style="enable-background:new 0 0 98.102 98.3;" xml:space="preserve">
<style type="text/css">
	.st0{fill:#0DB14B;stroke:#000000;stroke-width:4.5;stroke-miterlimit:10;}
	.st1{fill:#ED1A3B;}
	.st2{fill:none;stroke:#000000;stroke-width:4.5;stroke-miterlimit:10;}
</style>
<g>
	<path class="st0" d="M70.075,73.01c16.483-16.483,17.659-42.47,3.539-60.315c-0.891-1.127-2.574-1.219-3.59-0.203L9.556,72.959
		c-1.016,1.016-0.923,2.698,0.203,3.59C27.605,90.669,53.592,89.493,70.075,73.01z"/>
	<g>
		<path class="st1" d="M50.219,71.491c2.813-1.606,17.93-10.607,23.225-29.822C77.486,27.003,72.8,13.316,72.8,13.316
			c-0.505-1.475-1.82-1.78-2.923-0.677L9.703,72.813c-1.102,1.102-0.801,2.428,0.67,2.945
			C10.372,75.758,30.403,82.805,50.219,71.491z"/>
		<path class="st2" d="M50.219,71.491c2.813-1.606,17.93-10.607,23.225-29.822C77.486,27.003,72.8,13.316,72.8,13.316
			c-0.505-1.475-1.82-1.78-2.923-0.677L9.703,72.813c-1.102,1.102-0.801,2.428,0.67,2.945
			C10.372,75.758,30.403,82.805,50.219,71.491z"/>
	</g>
	<g>
		<ellipse transform="matrix(0.7071 -0.7071 0.7071 0.7071 -22.0778 50.9694)" cx="50.487" cy="52.135" rx="2.269" ry="3.644"/>
		<ellipse transform="matrix(0.4226 -0.9063 0.9063 0.4226 3.58 77.3625)" cx="62.507" cy="35.872" rx="2.269" ry="3.644"/>
		<ellipse transform="matrix(0.9063 -0.4226 0.4226 0.9063 -23.907 20.4742)" cx="34.223" cy="64.156" rx="2.269" ry="3.644"/>
	</g>
</g>
</svg>
